<?xml version="1.0" encoding="UTF-8"?><svg version="1.1" viewBox="0 0 100 43" xmlns="http://www.w3.org/2000/svg" xmlns:xlink="http://www.w3.org/1999/xlink"><!--Generated by IJSVG (https://github.com/iconjar/IJSVG)--><g transform="matrix(1,0,0,1,-13,-30)"><g transform="matrix(1,0,0,1,0,24)"><g transform="matrix(1,0,0,1,13,6)"><path fill="#003E68" fill-rule="evenodd" stroke="none" d="M0,35.7681h2.77839v-18.318h-2.77839Z"></path><path fill="#003E68" fill-rule="evenodd" stroke="none" d="M14.0029,30.02c0,-1.1215 -0.303518,-2.0195 -0.90603,-2.6885c-0.610553,-0.6875 -1.39347,-1.031 -2.34824,-1.031c-1.01859,0 -1.82161,0.3755 -2.41005,1.125c-0.531658,0.671 -0.798995,1.5415 -0.798995,2.6055c0,1.051 0.267337,1.911 0.798995,2.5825c0.580402,0.7355 1.38392,1.103 2.41005,1.103c1.02462,0 1.83518,-0.372 2.43166,-1.115c0.546734,-0.671 0.822613,-1.5305 0.822613,-2.5815Zm2.57588,5.475c0,0.546 -0.020603,1.0265 -0.0542713,1.442c-0.0361809,0.4155 -0.0859297,0.78 -0.149246,1.0955c-0.190452,0.871 -0.563819,1.6195 -1.12211,2.2435c-1.04673,1.2045 -2.49246,1.8035 -4.32663,1.8035c-1.55025,0 -2.82663,-0.4165 -3.82764,-1.251c-1.03417,-0.859 -1.63015,-2.0425 -1.78894,-3.554h2.69397c0.104523,0.5695 0.275377,1.0095 0.513568,1.3175c0.556281,0.7185 1.36784,1.0785 2.43216,1.0785c1.96332,0 2.94523,-1.1925 2.94523,-3.5815v-1.6135c-1.06583,1.083 -2.29397,1.6245 -3.68442,1.6245c-1.5809,0 -2.87688,-0.57 -3.88744,-1.708c-1.01608,-1.1545 -1.52513,-2.599 -1.52513,-4.3305c0,-1.685 0.471859,-3.115 1.41809,-4.2935c1.01759,-1.252 2.36131,-1.876 4.03015,-1.876c1.46332,0 2.67839,0.5405 3.64874,1.626v-1.3055h2.68392v11.2825Z"></path><path fill="#003E68" fill-rule="evenodd" stroke="none" d="M19.2297,24.2124h2.69598v1.0675c0.938191,-0.926 1.99598,-1.388 3.17286,-1.388c1.35126,0 2.40503,0.424 3.1603,1.2695c0.651256,0.72 0.978392,1.894 0.978392,3.523v7.0835h-2.69548v-6.4455c0,-1.137 -0.160301,-1.924 -0.477889,-2.3585c-0.309548,-0.4415 -0.874874,-0.6635 -1.69246,-0.6635c-0.890955,0 -1.52312,0.292 -1.89648,0.8765c-0.365829,0.577 -0.549246,1.5855 -0.549246,3.0215v5.5695h-2.69598v-11.5555Z"></path><path fill="#003E68" fill-rule="evenodd" stroke="none" d="M31.8884,35.7681h2.68342v-11.5555h-2.68342v11.5555Zm-0.403518,-16.3615c0,-0.4665 0.169849,-0.8705 0.510553,-1.2095c0.344221,-0.34 0.751256,-0.509 1.23065,-0.509c0.482412,0 0.897487,0.169 1.23769,0.509c0.344221,0.331 0.515075,0.741 0.515075,1.222c0,0.4825 -0.170854,0.8935 -0.515075,1.234c-0.331658,0.339 -0.742714,0.5105 -1.22563,0.5105c-0.487437,0 -0.898493,-0.1715 -1.24271,-0.5105c-0.340704,-0.3405 -0.510553,-0.756 -0.510553,-1.2465v0Z"></path><path fill="#003E68" fill-rule="evenodd" stroke="none" d="M40.4945,26.7032v9.065h-2.68492v-9.065h-1.14573v-2.4905h1.14573v-4.2355h2.68492v4.2355h2.08492v2.4905Z"></path><path fill="#003E68" fill-rule="evenodd" stroke="none" d="M44.1588,35.7681h2.68342v-11.5555h-2.68342v11.5555Zm-0.404523,-16.3615c0,-0.4665 0.169849,-0.8705 0.512563,-1.2095c0.341206,-0.34 0.750251,-0.509 1.22864,-0.509c0.484925,0 0.897487,0.169 1.2397,0.509c0.341206,0.331 0.512563,0.741 0.512563,1.222c0,0.4825 -0.171357,0.8935 -0.512563,1.234c-0.334171,0.339 -0.743719,0.5105 -1.22814,0.5105c-0.484925,0 -0.898995,-0.1715 -1.2402,-0.5105c-0.342714,-0.3405 -0.512563,-0.756 -0.512563,-1.2465v0Z"></path><path fill="#003E68" fill-rule="evenodd" stroke="none" d="M51.7029,29.9566c0,1.151 0.309045,2.068 0.930151,2.739c0.635176,0.679 1.47337,1.021 2.51558,1.021c1.04774,0 1.88894,-0.3355 2.51608,-1.0095c0.626633,-0.6715 0.941709,-1.5695 0.941709,-2.694c0,-1.1225 -0.315075,-2.021 -0.941709,-2.692c-0.634673,-0.6805 -1.47588,-1.0205 -2.51608,-1.0205c-1.02714,0 -1.85729,0.34 -2.49246,1.0205c-0.635678,0.6795 -0.953266,1.558 -0.953266,2.6355m-2.74372,-0.049c0,-1.669 0.601005,-3.0885 1.80151,-4.2585c1.20151,-1.1725 2.66332,-1.757 4.38794,-1.757c1.73317,0 3.20201,0.5895 4.41206,1.7685c1.19045,1.1785 1.78945,2.627 1.78945,4.3435c0,1.73 -0.603518,3.1825 -1.80151,4.3525c-1.20955,1.1615 -2.69146,1.7435 -4.44724,1.7435c-1.74121,0 -3.201,-0.5915 -4.37688,-1.7795c-1.17789,-1.17 -1.76533,-2.64 -1.76533,-4.413"></path><path fill="#003E68" fill-rule="evenodd" stroke="none" d="M71.9275,25.6743c-0.39598,-0.5355 -0.746734,-1.018 -1.0794,-1.4745c-0.520603,-0.2025 -1.10854,-0.3075 -1.77136,-0.3075c-1.17839,0 -2.23417,0.4615 -3.17286,1.3875v-1.0675h-2.69548v11.5555h2.69548v-5.5695c0,-1.436 0.18392,-2.4445 0.548744,-3.0215c0.373869,-0.5845 1.00754,-0.8765 1.89749,-0.8765c0.818593,0 1.38141,0.222 1.69246,0.6635c0.315578,0.4345 0.474874,1.2215 0.474874,2.3585v6.4455h2.69648v-7.083c0,-0.521 -0.0361809,-0.992 -0.103518,-1.4215c-0.428141,-0.574 -0.831658,-1.1155 -1.18291,-1.589"></path><path fill="#F6901E" fill-rule="evenodd" stroke="none" d="M99.6197,2.0581c-0.311055,-0.6875 -0.802513,-1.2195 -1.47337,-1.599c-0.673869,-0.3775 -1.38492,-0.5235 -2.13417,-0.433c-0.752764,0.0865 -1.3995,0.605 -1.93869,1.5575c-0.101508,0.1745 -0.359799,0.713 -0.778392,1.6165c-0.420603,0.9015 -0.954774,2.0425 -1.6005,3.4235c-0.644724,1.378 -1.37739,2.9315 -2.19296,4.6555c-0.819598,1.7245 -1.66432,3.5395 -2.53568,5.4405c-0.874874,1.9025 -1.75578,3.821 -2.64724,5.761c-0.873869,1.901 -1.70754,3.7045 -2.49347,5.409c0.376885,0.1605 0.733166,0.3675 1.07186,0.6175c1.61658,-2.358 3.34673,-4.8685 5.18543,-7.531c1.8603,-2.6955 3.58844,-5.2185 5.18543,-7.5745c1.59849,-2.353 2.95829,-4.3545 4.0804,-5.998c1.12362,-1.6445 1.76482,-2.6085 1.92412,-2.89c0.542714,-0.952 0.659296,-1.768 0.347236,-2.4555"></path><path fill="#F6901E" fill-rule="evenodd" stroke="none" d="M77.3403,27.937c-0.510553,-2.0275 -0.928643,-3.659 -1.24774,-4.8965c-0.327136,-1.25 -0.599497,-2.2395 -0.811558,-2.9685c-0.211055,-0.7265 -0.378894,-1.261 -0.502512,-1.6005c-0.124121,-0.34 -0.243216,-0.6305 -0.358794,-0.869c-0.273869,-0.5715 -0.679397,-0.9455 -1.21256,-1.1205c-0.534171,-0.1745 -1.10402,-0.1165 -1.71055,0.1715c-0.606533,0.2885 -1.01055,0.6955 -1.20754,1.2175c-0.201508,0.5245 -0.162312,1.0715 0.109548,1.6435c0.115578,0.238 0.266834,0.5125 0.455276,0.8225c0.187437,0.309 0.498995,0.777 0.936684,1.3985c0.434673,0.621 1.0392,1.4495 1.81106,2.4865c0.769347,1.037 1.79648,2.3965 3.07839,4.0865c0.214573,-0.139 0.435176,-0.2665 0.660301,-0.3715"></path><path fill="#F6901E" fill-rule="evenodd" stroke="none" d="M86.6633,34.7139c0.149749,0 0.411055,0.029 0.411055,-0.1615c0,-0.123 -0.163819,-0.145 -0.292965,-0.145h-0.317588v0.3065h0.199498Zm0.562814,0.7185h-0.203518l-0.359296,-0.55h-0.199498v0.55h-0.170854v-1.1925h0.523618c0.21608,0 0.425628,0.058 0.425628,0.315c0,0.2345 -0.164322,0.321 -0.378392,0.3275l0.362312,0.55Zm0.41005,-0.5895c0,-0.514 -0.430151,-0.923 -0.932663,-0.923c-0.50402,0 -0.931156,0.409 -0.931156,0.923c0,0.513 0.427136,0.922 0.931156,0.922c0.502513,0 0.932663,-0.409 0.932663,-0.922v0Zm-2.03317,0c0,-0.606 0.485427,-1.09 1.1005,-1.09c0.615578,0 1.1005,0.484 1.1005,1.09c0,0.607 -0.484925,1.089 -1.1005,1.089c-0.615075,0 -1.1005,-0.482 -1.1005,-1.089v0Z"></path><path fill="#F6901E" fill-rule="evenodd" stroke="none" d="M83.0157,32.94c0,1.861 -1.51608,3.369 -3.38492,3.369c-1.87035,0 -3.38593,-1.508 -3.38593,-3.369c0,-1.8605 1.51558,-3.3685 3.38593,-3.3685c1.86884,0 3.38492,1.508 3.38492,3.3685"></path></g></g></g></svg>